<svg id="WMA_White" xmlns="http://www.w3.org/2000/svg" viewBox="0 0 1440 1024"><defs><style>.cls-1{fill:#fff;}</style></defs><polygon id="A" class="cls-1" points="1157.34 305.1 1234.31 305.1 1407.3 718.9 1237.98 718.9 1194.91 616.04 1155.05 718.9 1068.92 514.33 1157.34 305.1"/><polygon id="M" class="cls-1" points="554.4 515.7 639.62 305.1 717.51 305.1 804.56 512 888.86 305.1 967.66 305.1 1138.56 718.9 971.79 718.9 928.26 618.79 887.49 718.9 720 718.9 678.56 617.41 639.16 718.9 554.4 515.7"/><polygon id="W" class="cls-1" points="32.7 305.1 201.27 305.1 286.15 510.55 371.36 305.1 450.74 305.1 621.52 718.9 452.46 718.9 410.19 617.76 369.65 718.9 204.02 718.9 32.7 305.1"/></svg>