<svg xmlns="http://www.w3.org/2000/svg" viewBox="0 0 1440 1024"><g id="WMA_Black"><polygon id="A" points="1161.5 303.13 1239.21 303.13 1413.84 720.87 1242.91 720.87 1199.43 617.03 1159.19 720.87 1072.24 514.35 1161.5 303.13"/><polygon id="M" points="552.83 515.74 638.85 303.13 717.48 303.13 805.36 512 890.47 303.13 970.02 303.13 1142.54 720.87 974.18 720.87 930.24 619.8 889.08 720.87 720 720.87 678.17 618.42 638.39 720.87 552.83 515.74"/><polygon id="W" points="26.16 303.13 196.34 303.13 282.02 510.53 368.05 303.13 448.18 303.13 620.58 720.87 449.91 720.87 407.25 618.76 366.31 720.87 199.11 720.87 26.16 303.13"/></g></svg>